<mxfile host="app.diagrams.net" modified="2021-09-18T04:06:04.550Z" agent="5.0 (Windows NT 10.0; Win64; x64) AppleWebKit/537.36 (KHTML, like Gecko) Chrome/93.0.4577.82 Safari/537.36" etag="PJDBYWFtZgTvQHSLjNmu" version="15.2.9" type="github">
  <diagram id="wmACakb8aDqO8YiRCAoL" name="Page-1">
    <mxGraphModel dx="1062" dy="624" grid="1" gridSize="10" guides="1" tooltips="1" connect="1" arrows="1" fold="1" page="1" pageScale="1" pageWidth="827" pageHeight="1169" background="#F1FAEE" math="0" shadow="0">
      <root>
        <mxCell id="0" />
        <mxCell id="1" parent="0" />
        <mxCell id="PuBjZ9zyTUK7U6MaTAjV-41" value="" style="edgeStyle=orthogonalEdgeStyle;rounded=0;orthogonalLoop=1;jettySize=auto;html=1;startArrow=ERone;startFill=0;endArrow=ERoneToMany;endFill=0;strokeColor=#457B9D;fontColor=#1D3557;labelBackgroundColor=#F1FAEE;" edge="1" parent="1" source="PuBjZ9zyTUK7U6MaTAjV-1" target="PuBjZ9zyTUK7U6MaTAjV-22">
          <mxGeometry relative="1" as="geometry" />
        </mxCell>
        <mxCell id="PuBjZ9zyTUK7U6MaTAjV-1" value="user" style="shape=table;startSize=30;container=1;collapsible=0;childLayout=tableLayout;fixedRows=1;rowLines=0;fontStyle=1;align=center;pointerEvents=1;fillColor=#A8DADC;strokeColor=#457B9D;fontColor=#1D3557;" vertex="1" parent="1">
          <mxGeometry x="110" y="40" width="180" height="210" as="geometry" />
        </mxCell>
        <mxCell id="PuBjZ9zyTUK7U6MaTAjV-2" value="" style="shape=partialRectangle;html=1;whiteSpace=wrap;collapsible=0;dropTarget=0;pointerEvents=1;fillColor=none;top=0;left=0;bottom=1;right=0;points=[[0,0.5],[1,0.5]];portConstraint=eastwest;strokeColor=#457B9D;fontColor=#1D3557;" vertex="1" parent="PuBjZ9zyTUK7U6MaTAjV-1">
          <mxGeometry y="30" width="180" height="30" as="geometry" />
        </mxCell>
        <mxCell id="PuBjZ9zyTUK7U6MaTAjV-3" value="PK" style="shape=partialRectangle;html=1;whiteSpace=wrap;connectable=0;fillColor=none;top=0;left=0;bottom=0;right=0;overflow=hidden;pointerEvents=1;strokeColor=#457B9D;fontColor=#000000;fontStyle=3" vertex="1" parent="PuBjZ9zyTUK7U6MaTAjV-2">
          <mxGeometry width="40" height="30" as="geometry">
            <mxRectangle width="40" height="30" as="alternateBounds" />
          </mxGeometry>
        </mxCell>
        <mxCell id="PuBjZ9zyTUK7U6MaTAjV-4" value="id" style="shape=partialRectangle;html=1;whiteSpace=wrap;connectable=0;fillColor=none;top=0;left=0;bottom=0;right=0;align=left;spacingLeft=6;overflow=hidden;pointerEvents=1;strokeColor=#457B9D;fontColor=#000000;fontStyle=3" vertex="1" parent="PuBjZ9zyTUK7U6MaTAjV-2">
          <mxGeometry x="40" width="140" height="30" as="geometry">
            <mxRectangle width="140" height="30" as="alternateBounds" />
          </mxGeometry>
        </mxCell>
        <mxCell id="PuBjZ9zyTUK7U6MaTAjV-5" value="" style="shape=partialRectangle;html=1;whiteSpace=wrap;collapsible=0;dropTarget=0;pointerEvents=1;fillColor=none;top=0;left=0;bottom=0;right=0;points=[[0,0.5],[1,0.5]];portConstraint=eastwest;strokeColor=#457B9D;fontColor=#1D3557;" vertex="1" parent="PuBjZ9zyTUK7U6MaTAjV-1">
          <mxGeometry y="60" width="180" height="30" as="geometry" />
        </mxCell>
        <mxCell id="PuBjZ9zyTUK7U6MaTAjV-6" value="" style="shape=partialRectangle;html=1;whiteSpace=wrap;connectable=0;fillColor=none;top=0;left=0;bottom=0;right=0;overflow=hidden;pointerEvents=1;strokeColor=#457B9D;fontColor=#1D3557;" vertex="1" parent="PuBjZ9zyTUK7U6MaTAjV-5">
          <mxGeometry width="40" height="30" as="geometry">
            <mxRectangle width="40" height="30" as="alternateBounds" />
          </mxGeometry>
        </mxCell>
        <mxCell id="PuBjZ9zyTUK7U6MaTAjV-7" value="name" style="shape=partialRectangle;html=1;whiteSpace=wrap;connectable=0;fillColor=none;top=0;left=0;bottom=0;right=0;align=left;spacingLeft=6;overflow=hidden;pointerEvents=1;strokeColor=#457B9D;fontColor=#1D3557;" vertex="1" parent="PuBjZ9zyTUK7U6MaTAjV-5">
          <mxGeometry x="40" width="140" height="30" as="geometry">
            <mxRectangle width="140" height="30" as="alternateBounds" />
          </mxGeometry>
        </mxCell>
        <mxCell id="PuBjZ9zyTUK7U6MaTAjV-8" value="" style="shape=partialRectangle;html=1;whiteSpace=wrap;collapsible=0;dropTarget=0;pointerEvents=1;fillColor=none;top=0;left=0;bottom=0;right=0;points=[[0,0.5],[1,0.5]];portConstraint=eastwest;strokeColor=#457B9D;fontColor=#1D3557;" vertex="1" parent="PuBjZ9zyTUK7U6MaTAjV-1">
          <mxGeometry y="90" width="180" height="30" as="geometry" />
        </mxCell>
        <mxCell id="PuBjZ9zyTUK7U6MaTAjV-9" value="" style="shape=partialRectangle;html=1;whiteSpace=wrap;connectable=0;fillColor=none;top=0;left=0;bottom=0;right=0;overflow=hidden;pointerEvents=1;strokeColor=#457B9D;fontColor=#1D3557;" vertex="1" parent="PuBjZ9zyTUK7U6MaTAjV-8">
          <mxGeometry width="40" height="30" as="geometry">
            <mxRectangle width="40" height="30" as="alternateBounds" />
          </mxGeometry>
        </mxCell>
        <mxCell id="PuBjZ9zyTUK7U6MaTAjV-10" value="email" style="shape=partialRectangle;html=1;whiteSpace=wrap;connectable=0;fillColor=none;top=0;left=0;bottom=0;right=0;align=left;spacingLeft=6;overflow=hidden;pointerEvents=1;strokeColor=#457B9D;fontColor=#1D3557;" vertex="1" parent="PuBjZ9zyTUK7U6MaTAjV-8">
          <mxGeometry x="40" width="140" height="30" as="geometry">
            <mxRectangle width="140" height="30" as="alternateBounds" />
          </mxGeometry>
        </mxCell>
        <mxCell id="PuBjZ9zyTUK7U6MaTAjV-13" value="" style="shape=partialRectangle;html=1;whiteSpace=wrap;collapsible=0;dropTarget=0;pointerEvents=1;fillColor=none;top=0;left=0;bottom=0;right=0;points=[[0,0.5],[1,0.5]];portConstraint=eastwest;strokeColor=#457B9D;fontColor=#1D3557;" vertex="1" parent="PuBjZ9zyTUK7U6MaTAjV-1">
          <mxGeometry y="120" width="180" height="30" as="geometry" />
        </mxCell>
        <mxCell id="PuBjZ9zyTUK7U6MaTAjV-14" value="" style="shape=partialRectangle;html=1;whiteSpace=wrap;connectable=0;fillColor=none;top=0;left=0;bottom=0;right=0;overflow=hidden;pointerEvents=1;strokeColor=#457B9D;fontColor=#1D3557;" vertex="1" parent="PuBjZ9zyTUK7U6MaTAjV-13">
          <mxGeometry width="40" height="30" as="geometry">
            <mxRectangle width="40" height="30" as="alternateBounds" />
          </mxGeometry>
        </mxCell>
        <mxCell id="PuBjZ9zyTUK7U6MaTAjV-15" value="gender" style="shape=partialRectangle;html=1;whiteSpace=wrap;connectable=0;fillColor=none;top=0;left=0;bottom=0;right=0;align=left;spacingLeft=6;overflow=hidden;pointerEvents=1;strokeColor=#457B9D;fontColor=#1D3557;" vertex="1" parent="PuBjZ9zyTUK7U6MaTAjV-13">
          <mxGeometry x="40" width="140" height="30" as="geometry">
            <mxRectangle width="140" height="30" as="alternateBounds" />
          </mxGeometry>
        </mxCell>
        <mxCell id="PuBjZ9zyTUK7U6MaTAjV-16" value="" style="shape=partialRectangle;html=1;whiteSpace=wrap;collapsible=0;dropTarget=0;pointerEvents=1;fillColor=none;top=0;left=0;bottom=0;right=0;points=[[0,0.5],[1,0.5]];portConstraint=eastwest;strokeColor=#457B9D;fontColor=#1D3557;" vertex="1" parent="PuBjZ9zyTUK7U6MaTAjV-1">
          <mxGeometry y="150" width="180" height="30" as="geometry" />
        </mxCell>
        <mxCell id="PuBjZ9zyTUK7U6MaTAjV-17" value="" style="shape=partialRectangle;html=1;whiteSpace=wrap;connectable=0;fillColor=none;top=0;left=0;bottom=0;right=0;overflow=hidden;pointerEvents=1;strokeColor=#457B9D;fontColor=#1D3557;" vertex="1" parent="PuBjZ9zyTUK7U6MaTAjV-16">
          <mxGeometry width="40" height="30" as="geometry">
            <mxRectangle width="40" height="30" as="alternateBounds" />
          </mxGeometry>
        </mxCell>
        <mxCell id="PuBjZ9zyTUK7U6MaTAjV-18" value="create_at" style="shape=partialRectangle;html=1;whiteSpace=wrap;connectable=0;fillColor=none;top=0;left=0;bottom=0;right=0;align=left;spacingLeft=6;overflow=hidden;pointerEvents=1;strokeColor=#457B9D;fontColor=#1D3557;" vertex="1" parent="PuBjZ9zyTUK7U6MaTAjV-16">
          <mxGeometry x="40" width="140" height="30" as="geometry">
            <mxRectangle width="140" height="30" as="alternateBounds" />
          </mxGeometry>
        </mxCell>
        <mxCell id="PuBjZ9zyTUK7U6MaTAjV-19" value="" style="shape=partialRectangle;html=1;whiteSpace=wrap;collapsible=0;dropTarget=0;pointerEvents=1;fillColor=none;top=0;left=0;bottom=0;right=0;points=[[0,0.5],[1,0.5]];portConstraint=eastwest;strokeColor=#457B9D;fontColor=#1D3557;" vertex="1" parent="PuBjZ9zyTUK7U6MaTAjV-1">
          <mxGeometry y="180" width="180" height="30" as="geometry" />
        </mxCell>
        <mxCell id="PuBjZ9zyTUK7U6MaTAjV-20" value="" style="shape=partialRectangle;html=1;whiteSpace=wrap;connectable=0;fillColor=none;top=0;left=0;bottom=0;right=0;overflow=hidden;pointerEvents=1;strokeColor=#457B9D;fontColor=#1D3557;" vertex="1" parent="PuBjZ9zyTUK7U6MaTAjV-19">
          <mxGeometry width="40" height="30" as="geometry">
            <mxRectangle width="40" height="30" as="alternateBounds" />
          </mxGeometry>
        </mxCell>
        <mxCell id="PuBjZ9zyTUK7U6MaTAjV-21" value="updated_at" style="shape=partialRectangle;html=1;whiteSpace=wrap;connectable=0;fillColor=none;top=0;left=0;bottom=0;right=0;align=left;spacingLeft=6;overflow=hidden;pointerEvents=1;strokeColor=#457B9D;fontColor=#1D3557;" vertex="1" parent="PuBjZ9zyTUK7U6MaTAjV-19">
          <mxGeometry x="40" width="140" height="30" as="geometry">
            <mxRectangle width="140" height="30" as="alternateBounds" />
          </mxGeometry>
        </mxCell>
        <mxCell id="PuBjZ9zyTUK7U6MaTAjV-22" value="user_history" style="shape=table;startSize=30;container=1;collapsible=0;childLayout=tableLayout;fixedRows=1;rowLines=0;fontStyle=1;align=center;pointerEvents=1;fillColor=#A8DADC;strokeColor=#457B9D;fontColor=#1D3557;" vertex="1" parent="1">
          <mxGeometry x="110" y="340" width="180" height="210" as="geometry" />
        </mxCell>
        <mxCell id="PuBjZ9zyTUK7U6MaTAjV-23" value="" style="shape=partialRectangle;html=1;whiteSpace=wrap;collapsible=0;dropTarget=0;pointerEvents=1;fillColor=none;top=0;left=0;bottom=1;right=0;points=[[0,0.5],[1,0.5]];portConstraint=eastwest;strokeColor=#457B9D;fontColor=#1D3557;" vertex="1" parent="PuBjZ9zyTUK7U6MaTAjV-22">
          <mxGeometry y="30" width="180" height="30" as="geometry" />
        </mxCell>
        <mxCell id="PuBjZ9zyTUK7U6MaTAjV-24" value="PK" style="shape=partialRectangle;html=1;whiteSpace=wrap;connectable=0;fillColor=none;top=0;left=0;bottom=0;right=0;overflow=hidden;pointerEvents=1;strokeColor=#457B9D;fontColor=#1D3557;fontStyle=3" vertex="1" parent="PuBjZ9zyTUK7U6MaTAjV-23">
          <mxGeometry width="40" height="30" as="geometry">
            <mxRectangle width="40" height="30" as="alternateBounds" />
          </mxGeometry>
        </mxCell>
        <mxCell id="PuBjZ9zyTUK7U6MaTAjV-25" value="id" style="shape=partialRectangle;html=1;whiteSpace=wrap;connectable=0;fillColor=none;top=0;left=0;bottom=0;right=0;align=left;spacingLeft=6;overflow=hidden;pointerEvents=1;strokeColor=#457B9D;fontColor=#1D3557;fontStyle=3" vertex="1" parent="PuBjZ9zyTUK7U6MaTAjV-23">
          <mxGeometry x="40" width="140" height="30" as="geometry">
            <mxRectangle width="140" height="30" as="alternateBounds" />
          </mxGeometry>
        </mxCell>
        <mxCell id="PuBjZ9zyTUK7U6MaTAjV-26" value="" style="shape=partialRectangle;html=1;whiteSpace=wrap;collapsible=0;dropTarget=0;pointerEvents=1;fillColor=none;top=0;left=0;bottom=0;right=0;points=[[0,0.5],[1,0.5]];portConstraint=eastwest;strokeColor=#457B9D;fontColor=#1D3557;" vertex="1" parent="PuBjZ9zyTUK7U6MaTAjV-22">
          <mxGeometry y="60" width="180" height="30" as="geometry" />
        </mxCell>
        <mxCell id="PuBjZ9zyTUK7U6MaTAjV-27" value="FK" style="shape=partialRectangle;html=1;whiteSpace=wrap;connectable=0;fillColor=none;top=0;left=0;bottom=0;right=0;overflow=hidden;pointerEvents=1;strokeColor=#457B9D;fontColor=#1D3557;" vertex="1" parent="PuBjZ9zyTUK7U6MaTAjV-26">
          <mxGeometry width="40" height="30" as="geometry">
            <mxRectangle width="40" height="30" as="alternateBounds" />
          </mxGeometry>
        </mxCell>
        <mxCell id="PuBjZ9zyTUK7U6MaTAjV-28" value="user_id" style="shape=partialRectangle;html=1;whiteSpace=wrap;connectable=0;fillColor=none;top=0;left=0;bottom=0;right=0;align=left;spacingLeft=6;overflow=hidden;pointerEvents=1;strokeColor=#457B9D;fontColor=#1D3557;" vertex="1" parent="PuBjZ9zyTUK7U6MaTAjV-26">
          <mxGeometry x="40" width="140" height="30" as="geometry">
            <mxRectangle width="140" height="30" as="alternateBounds" />
          </mxGeometry>
        </mxCell>
        <mxCell id="PuBjZ9zyTUK7U6MaTAjV-29" value="" style="shape=partialRectangle;html=1;whiteSpace=wrap;collapsible=0;dropTarget=0;pointerEvents=1;fillColor=none;top=0;left=0;bottom=0;right=0;points=[[0,0.5],[1,0.5]];portConstraint=eastwest;strokeColor=#457B9D;fontColor=#1D3557;" vertex="1" parent="PuBjZ9zyTUK7U6MaTAjV-22">
          <mxGeometry y="90" width="180" height="30" as="geometry" />
        </mxCell>
        <mxCell id="PuBjZ9zyTUK7U6MaTAjV-30" value="" style="shape=partialRectangle;html=1;whiteSpace=wrap;connectable=0;fillColor=none;top=0;left=0;bottom=0;right=0;overflow=hidden;pointerEvents=1;strokeColor=#457B9D;fontColor=#1D3557;" vertex="1" parent="PuBjZ9zyTUK7U6MaTAjV-29">
          <mxGeometry width="40" height="30" as="geometry">
            <mxRectangle width="40" height="30" as="alternateBounds" />
          </mxGeometry>
        </mxCell>
        <mxCell id="PuBjZ9zyTUK7U6MaTAjV-31" value="email" style="shape=partialRectangle;html=1;whiteSpace=wrap;connectable=0;fillColor=none;top=0;left=0;bottom=0;right=0;align=left;spacingLeft=6;overflow=hidden;pointerEvents=1;strokeColor=#457B9D;fontColor=#1D3557;" vertex="1" parent="PuBjZ9zyTUK7U6MaTAjV-29">
          <mxGeometry x="40" width="140" height="30" as="geometry">
            <mxRectangle width="140" height="30" as="alternateBounds" />
          </mxGeometry>
        </mxCell>
        <mxCell id="PuBjZ9zyTUK7U6MaTAjV-32" value="" style="shape=partialRectangle;html=1;whiteSpace=wrap;collapsible=0;dropTarget=0;pointerEvents=1;fillColor=none;top=0;left=0;bottom=0;right=0;points=[[0,0.5],[1,0.5]];portConstraint=eastwest;strokeColor=#457B9D;fontColor=#1D3557;" vertex="1" parent="PuBjZ9zyTUK7U6MaTAjV-22">
          <mxGeometry y="120" width="180" height="30" as="geometry" />
        </mxCell>
        <mxCell id="PuBjZ9zyTUK7U6MaTAjV-33" value="" style="shape=partialRectangle;html=1;whiteSpace=wrap;connectable=0;fillColor=none;top=0;left=0;bottom=0;right=0;overflow=hidden;pointerEvents=1;strokeColor=#457B9D;fontColor=#1D3557;" vertex="1" parent="PuBjZ9zyTUK7U6MaTAjV-32">
          <mxGeometry width="40" height="30" as="geometry">
            <mxRectangle width="40" height="30" as="alternateBounds" />
          </mxGeometry>
        </mxCell>
        <mxCell id="PuBjZ9zyTUK7U6MaTAjV-34" value="gender" style="shape=partialRectangle;html=1;whiteSpace=wrap;connectable=0;fillColor=none;top=0;left=0;bottom=0;right=0;align=left;spacingLeft=6;overflow=hidden;pointerEvents=1;strokeColor=#457B9D;fontColor=#1D3557;" vertex="1" parent="PuBjZ9zyTUK7U6MaTAjV-32">
          <mxGeometry x="40" width="140" height="30" as="geometry">
            <mxRectangle width="140" height="30" as="alternateBounds" />
          </mxGeometry>
        </mxCell>
        <mxCell id="PuBjZ9zyTUK7U6MaTAjV-35" value="" style="shape=partialRectangle;html=1;whiteSpace=wrap;collapsible=0;dropTarget=0;pointerEvents=1;fillColor=none;top=0;left=0;bottom=0;right=0;points=[[0,0.5],[1,0.5]];portConstraint=eastwest;strokeColor=#457B9D;fontColor=#1D3557;" vertex="1" parent="PuBjZ9zyTUK7U6MaTAjV-22">
          <mxGeometry y="150" width="180" height="30" as="geometry" />
        </mxCell>
        <mxCell id="PuBjZ9zyTUK7U6MaTAjV-36" value="" style="shape=partialRectangle;html=1;whiteSpace=wrap;connectable=0;fillColor=none;top=0;left=0;bottom=0;right=0;overflow=hidden;pointerEvents=1;strokeColor=#457B9D;fontColor=#1D3557;" vertex="1" parent="PuBjZ9zyTUK7U6MaTAjV-35">
          <mxGeometry width="40" height="30" as="geometry">
            <mxRectangle width="40" height="30" as="alternateBounds" />
          </mxGeometry>
        </mxCell>
        <mxCell id="PuBjZ9zyTUK7U6MaTAjV-37" value="create_at" style="shape=partialRectangle;html=1;whiteSpace=wrap;connectable=0;fillColor=none;top=0;left=0;bottom=0;right=0;align=left;spacingLeft=6;overflow=hidden;pointerEvents=1;strokeColor=#457B9D;fontColor=#1D3557;" vertex="1" parent="PuBjZ9zyTUK7U6MaTAjV-35">
          <mxGeometry x="40" width="140" height="30" as="geometry">
            <mxRectangle width="140" height="30" as="alternateBounds" />
          </mxGeometry>
        </mxCell>
        <mxCell id="PuBjZ9zyTUK7U6MaTAjV-38" value="" style="shape=partialRectangle;html=1;whiteSpace=wrap;collapsible=0;dropTarget=0;pointerEvents=1;fillColor=none;top=0;left=0;bottom=0;right=0;points=[[0,0.5],[1,0.5]];portConstraint=eastwest;strokeColor=#457B9D;fontColor=#1D3557;" vertex="1" parent="PuBjZ9zyTUK7U6MaTAjV-22">
          <mxGeometry y="180" width="180" height="30" as="geometry" />
        </mxCell>
        <mxCell id="PuBjZ9zyTUK7U6MaTAjV-39" value="" style="shape=partialRectangle;html=1;whiteSpace=wrap;connectable=0;fillColor=none;top=0;left=0;bottom=0;right=0;overflow=hidden;pointerEvents=1;strokeColor=#457B9D;fontColor=#1D3557;" vertex="1" parent="PuBjZ9zyTUK7U6MaTAjV-38">
          <mxGeometry width="40" height="30" as="geometry">
            <mxRectangle width="40" height="30" as="alternateBounds" />
          </mxGeometry>
        </mxCell>
        <mxCell id="PuBjZ9zyTUK7U6MaTAjV-40" value="updated_at" style="shape=partialRectangle;html=1;whiteSpace=wrap;connectable=0;fillColor=none;top=0;left=0;bottom=0;right=0;align=left;spacingLeft=6;overflow=hidden;pointerEvents=1;strokeColor=#457B9D;fontColor=#1D3557;" vertex="1" parent="PuBjZ9zyTUK7U6MaTAjV-38">
          <mxGeometry x="40" width="140" height="30" as="geometry">
            <mxRectangle width="140" height="30" as="alternateBounds" />
          </mxGeometry>
        </mxCell>
        <mxCell id="PuBjZ9zyTUK7U6MaTAjV-42" value="book" style="shape=table;startSize=30;container=1;collapsible=0;childLayout=tableLayout;fixedRows=1;rowLines=0;fontStyle=1;align=center;pointerEvents=1;fillColor=#A8DADC;strokeColor=#457B9D;fontColor=#1D3557;" vertex="1" parent="1">
          <mxGeometry x="630" y="40" width="180" height="240" as="geometry" />
        </mxCell>
        <mxCell id="PuBjZ9zyTUK7U6MaTAjV-43" value="" style="shape=partialRectangle;html=1;whiteSpace=wrap;collapsible=0;dropTarget=0;pointerEvents=1;fillColor=none;top=0;left=0;bottom=1;right=0;points=[[0,0.5],[1,0.5]];portConstraint=eastwest;strokeColor=#457B9D;fontColor=#1D3557;" vertex="1" parent="PuBjZ9zyTUK7U6MaTAjV-42">
          <mxGeometry y="30" width="180" height="30" as="geometry" />
        </mxCell>
        <mxCell id="PuBjZ9zyTUK7U6MaTAjV-44" value="PK" style="shape=partialRectangle;html=1;whiteSpace=wrap;connectable=0;fillColor=none;top=0;left=0;bottom=0;right=0;overflow=hidden;pointerEvents=1;strokeColor=#457B9D;fontColor=#1D3557;fontStyle=3" vertex="1" parent="PuBjZ9zyTUK7U6MaTAjV-43">
          <mxGeometry width="40" height="30" as="geometry">
            <mxRectangle width="40" height="30" as="alternateBounds" />
          </mxGeometry>
        </mxCell>
        <mxCell id="PuBjZ9zyTUK7U6MaTAjV-45" value="id" style="shape=partialRectangle;html=1;whiteSpace=wrap;connectable=0;fillColor=none;top=0;left=0;bottom=0;right=0;align=left;spacingLeft=6;overflow=hidden;pointerEvents=1;strokeColor=#457B9D;fontColor=#1D3557;fontStyle=3" vertex="1" parent="PuBjZ9zyTUK7U6MaTAjV-43">
          <mxGeometry x="40" width="140" height="30" as="geometry">
            <mxRectangle width="140" height="30" as="alternateBounds" />
          </mxGeometry>
        </mxCell>
        <mxCell id="PuBjZ9zyTUK7U6MaTAjV-46" value="" style="shape=partialRectangle;html=1;whiteSpace=wrap;collapsible=0;dropTarget=0;pointerEvents=1;fillColor=none;top=0;left=0;bottom=0;right=0;points=[[0,0.5],[1,0.5]];portConstraint=eastwest;strokeColor=#457B9D;fontColor=#1D3557;" vertex="1" parent="PuBjZ9zyTUK7U6MaTAjV-42">
          <mxGeometry y="60" width="180" height="30" as="geometry" />
        </mxCell>
        <mxCell id="PuBjZ9zyTUK7U6MaTAjV-47" value="" style="shape=partialRectangle;html=1;whiteSpace=wrap;connectable=0;fillColor=none;top=0;left=0;bottom=0;right=0;overflow=hidden;pointerEvents=1;strokeColor=#457B9D;fontColor=#1D3557;" vertex="1" parent="PuBjZ9zyTUK7U6MaTAjV-46">
          <mxGeometry width="40" height="30" as="geometry">
            <mxRectangle width="40" height="30" as="alternateBounds" />
          </mxGeometry>
        </mxCell>
        <mxCell id="PuBjZ9zyTUK7U6MaTAjV-48" value="name" style="shape=partialRectangle;html=1;whiteSpace=wrap;connectable=0;fillColor=none;top=0;left=0;bottom=0;right=0;align=left;spacingLeft=6;overflow=hidden;pointerEvents=1;strokeColor=#457B9D;fontColor=#1D3557;" vertex="1" parent="PuBjZ9zyTUK7U6MaTAjV-46">
          <mxGeometry x="40" width="140" height="30" as="geometry">
            <mxRectangle width="140" height="30" as="alternateBounds" />
          </mxGeometry>
        </mxCell>
        <mxCell id="PuBjZ9zyTUK7U6MaTAjV-49" value="" style="shape=partialRectangle;html=1;whiteSpace=wrap;collapsible=0;dropTarget=0;pointerEvents=1;fillColor=none;top=0;left=0;bottom=0;right=0;points=[[0,0.5],[1,0.5]];portConstraint=eastwest;strokeColor=#457B9D;fontColor=#1D3557;" vertex="1" parent="PuBjZ9zyTUK7U6MaTAjV-42">
          <mxGeometry y="90" width="180" height="30" as="geometry" />
        </mxCell>
        <mxCell id="PuBjZ9zyTUK7U6MaTAjV-50" value="" style="shape=partialRectangle;html=1;whiteSpace=wrap;connectable=0;fillColor=none;top=0;left=0;bottom=0;right=0;overflow=hidden;pointerEvents=1;strokeColor=#457B9D;fontColor=#1D3557;" vertex="1" parent="PuBjZ9zyTUK7U6MaTAjV-49">
          <mxGeometry width="40" height="30" as="geometry">
            <mxRectangle width="40" height="30" as="alternateBounds" />
          </mxGeometry>
        </mxCell>
        <mxCell id="PuBjZ9zyTUK7U6MaTAjV-51" value="category" style="shape=partialRectangle;html=1;whiteSpace=wrap;connectable=0;fillColor=none;top=0;left=0;bottom=0;right=0;align=left;spacingLeft=6;overflow=hidden;pointerEvents=1;strokeColor=#457B9D;fontColor=#1D3557;" vertex="1" parent="PuBjZ9zyTUK7U6MaTAjV-49">
          <mxGeometry x="40" width="140" height="30" as="geometry">
            <mxRectangle width="140" height="30" as="alternateBounds" />
          </mxGeometry>
        </mxCell>
        <mxCell id="PuBjZ9zyTUK7U6MaTAjV-52" value="" style="shape=partialRectangle;html=1;whiteSpace=wrap;collapsible=0;dropTarget=0;pointerEvents=1;fillColor=none;top=0;left=0;bottom=0;right=0;points=[[0,0.5],[1,0.5]];portConstraint=eastwest;strokeColor=#457B9D;fontColor=#1D3557;" vertex="1" parent="PuBjZ9zyTUK7U6MaTAjV-42">
          <mxGeometry y="120" width="180" height="30" as="geometry" />
        </mxCell>
        <mxCell id="PuBjZ9zyTUK7U6MaTAjV-53" value="FK" style="shape=partialRectangle;html=1;whiteSpace=wrap;connectable=0;fillColor=none;top=0;left=0;bottom=0;right=0;overflow=hidden;pointerEvents=1;strokeColor=#457B9D;fontColor=#1D3557;" vertex="1" parent="PuBjZ9zyTUK7U6MaTAjV-52">
          <mxGeometry width="40" height="30" as="geometry">
            <mxRectangle width="40" height="30" as="alternateBounds" />
          </mxGeometry>
        </mxCell>
        <mxCell id="PuBjZ9zyTUK7U6MaTAjV-54" value="author_id" style="shape=partialRectangle;html=1;whiteSpace=wrap;connectable=0;fillColor=none;top=0;left=0;bottom=0;right=0;align=left;spacingLeft=6;overflow=hidden;pointerEvents=1;strokeColor=#457B9D;fontColor=#1D3557;" vertex="1" parent="PuBjZ9zyTUK7U6MaTAjV-52">
          <mxGeometry x="40" width="140" height="30" as="geometry">
            <mxRectangle width="140" height="30" as="alternateBounds" />
          </mxGeometry>
        </mxCell>
        <mxCell id="PuBjZ9zyTUK7U6MaTAjV-55" value="" style="shape=partialRectangle;html=1;whiteSpace=wrap;collapsible=0;dropTarget=0;pointerEvents=1;fillColor=none;top=0;left=0;bottom=0;right=0;points=[[0,0.5],[1,0.5]];portConstraint=eastwest;strokeColor=#457B9D;fontColor=#1D3557;" vertex="1" parent="PuBjZ9zyTUK7U6MaTAjV-42">
          <mxGeometry y="150" width="180" height="30" as="geometry" />
        </mxCell>
        <mxCell id="PuBjZ9zyTUK7U6MaTAjV-56" value="FK" style="shape=partialRectangle;html=1;whiteSpace=wrap;connectable=0;fillColor=none;top=0;left=0;bottom=0;right=0;overflow=hidden;pointerEvents=1;strokeColor=#457B9D;fontColor=#1D3557;" vertex="1" parent="PuBjZ9zyTUK7U6MaTAjV-55">
          <mxGeometry width="40" height="30" as="geometry">
            <mxRectangle width="40" height="30" as="alternateBounds" />
          </mxGeometry>
        </mxCell>
        <mxCell id="PuBjZ9zyTUK7U6MaTAjV-57" value="publisher_id" style="shape=partialRectangle;html=1;whiteSpace=wrap;connectable=0;fillColor=none;top=0;left=0;bottom=0;right=0;align=left;spacingLeft=6;overflow=hidden;pointerEvents=1;strokeColor=#457B9D;fontColor=#1D3557;" vertex="1" parent="PuBjZ9zyTUK7U6MaTAjV-55">
          <mxGeometry x="40" width="140" height="30" as="geometry">
            <mxRectangle width="140" height="30" as="alternateBounds" />
          </mxGeometry>
        </mxCell>
        <mxCell id="PuBjZ9zyTUK7U6MaTAjV-147" value="" style="shape=partialRectangle;html=1;whiteSpace=wrap;collapsible=0;dropTarget=0;pointerEvents=1;fillColor=none;top=0;left=0;bottom=0;right=0;points=[[0,0.5],[1,0.5]];portConstraint=eastwest;strokeColor=#457B9D;fontColor=#1D3557;" vertex="1" parent="PuBjZ9zyTUK7U6MaTAjV-42">
          <mxGeometry y="180" width="180" height="30" as="geometry" />
        </mxCell>
        <mxCell id="PuBjZ9zyTUK7U6MaTAjV-148" value="" style="shape=partialRectangle;html=1;whiteSpace=wrap;connectable=0;fillColor=none;top=0;left=0;bottom=0;right=0;overflow=hidden;pointerEvents=1;strokeColor=#457B9D;fontColor=#1D3557;" vertex="1" parent="PuBjZ9zyTUK7U6MaTAjV-147">
          <mxGeometry width="40" height="30" as="geometry">
            <mxRectangle width="40" height="30" as="alternateBounds" />
          </mxGeometry>
        </mxCell>
        <mxCell id="PuBjZ9zyTUK7U6MaTAjV-149" value="create_at" style="shape=partialRectangle;html=1;whiteSpace=wrap;connectable=0;fillColor=none;top=0;left=0;bottom=0;right=0;align=left;spacingLeft=6;overflow=hidden;pointerEvents=1;strokeColor=#457B9D;fontColor=#1D3557;" vertex="1" parent="PuBjZ9zyTUK7U6MaTAjV-147">
          <mxGeometry x="40" width="140" height="30" as="geometry">
            <mxRectangle width="140" height="30" as="alternateBounds" />
          </mxGeometry>
        </mxCell>
        <mxCell id="PuBjZ9zyTUK7U6MaTAjV-150" value="" style="shape=partialRectangle;html=1;whiteSpace=wrap;collapsible=0;dropTarget=0;pointerEvents=1;fillColor=none;top=0;left=0;bottom=0;right=0;points=[[0,0.5],[1,0.5]];portConstraint=eastwest;strokeColor=#457B9D;fontColor=#1D3557;" vertex="1" parent="PuBjZ9zyTUK7U6MaTAjV-42">
          <mxGeometry y="210" width="180" height="30" as="geometry" />
        </mxCell>
        <mxCell id="PuBjZ9zyTUK7U6MaTAjV-151" value="" style="shape=partialRectangle;html=1;whiteSpace=wrap;connectable=0;fillColor=none;top=0;left=0;bottom=0;right=0;overflow=hidden;pointerEvents=1;strokeColor=#457B9D;fontColor=#1D3557;" vertex="1" parent="PuBjZ9zyTUK7U6MaTAjV-150">
          <mxGeometry width="40" height="30" as="geometry">
            <mxRectangle width="40" height="30" as="alternateBounds" />
          </mxGeometry>
        </mxCell>
        <mxCell id="PuBjZ9zyTUK7U6MaTAjV-152" value="update_at" style="shape=partialRectangle;html=1;whiteSpace=wrap;connectable=0;fillColor=none;top=0;left=0;bottom=0;right=0;align=left;spacingLeft=6;overflow=hidden;pointerEvents=1;strokeColor=#457B9D;fontColor=#1D3557;" vertex="1" parent="PuBjZ9zyTUK7U6MaTAjV-150">
          <mxGeometry x="40" width="140" height="30" as="geometry">
            <mxRectangle width="140" height="30" as="alternateBounds" />
          </mxGeometry>
        </mxCell>
        <mxCell id="PuBjZ9zyTUK7U6MaTAjV-90" style="edgeStyle=orthogonalEdgeStyle;rounded=0;orthogonalLoop=1;jettySize=auto;html=1;startArrow=ERoneToMany;startFill=0;endArrow=ERoneToMany;endFill=0;strokeColor=#457B9D;fontColor=#1D3557;labelBackgroundColor=#F1FAEE;" edge="1" parent="1" source="PuBjZ9zyTUK7U6MaTAjV-58" target="PuBjZ9zyTUK7U6MaTAjV-42">
          <mxGeometry relative="1" as="geometry" />
        </mxCell>
        <mxCell id="PuBjZ9zyTUK7U6MaTAjV-58" value="author" style="shape=table;startSize=30;container=1;collapsible=0;childLayout=tableLayout;fixedRows=1;rowLines=0;fontStyle=1;align=center;pointerEvents=1;fillColor=#A8DADC;strokeColor=#457B9D;fontColor=#1D3557;" vertex="1" parent="1">
          <mxGeometry x="490" y="340" width="180" height="210" as="geometry" />
        </mxCell>
        <mxCell id="PuBjZ9zyTUK7U6MaTAjV-59" value="" style="shape=partialRectangle;html=1;whiteSpace=wrap;collapsible=0;dropTarget=0;pointerEvents=1;fillColor=none;top=0;left=0;bottom=1;right=0;points=[[0,0.5],[1,0.5]];portConstraint=eastwest;strokeColor=#457B9D;fontColor=#1D3557;" vertex="1" parent="PuBjZ9zyTUK7U6MaTAjV-58">
          <mxGeometry y="30" width="180" height="30" as="geometry" />
        </mxCell>
        <mxCell id="PuBjZ9zyTUK7U6MaTAjV-60" value="PK" style="shape=partialRectangle;html=1;whiteSpace=wrap;connectable=0;fillColor=none;top=0;left=0;bottom=0;right=0;overflow=hidden;pointerEvents=1;strokeColor=#457B9D;fontColor=#1D3557;fontStyle=1" vertex="1" parent="PuBjZ9zyTUK7U6MaTAjV-59">
          <mxGeometry width="40" height="30" as="geometry">
            <mxRectangle width="40" height="30" as="alternateBounds" />
          </mxGeometry>
        </mxCell>
        <mxCell id="PuBjZ9zyTUK7U6MaTAjV-61" value="id" style="shape=partialRectangle;html=1;whiteSpace=wrap;connectable=0;fillColor=none;top=0;left=0;bottom=0;right=0;align=left;spacingLeft=6;overflow=hidden;pointerEvents=1;strokeColor=#457B9D;fontColor=#1D3557;fontStyle=3" vertex="1" parent="PuBjZ9zyTUK7U6MaTAjV-59">
          <mxGeometry x="40" width="140" height="30" as="geometry">
            <mxRectangle width="140" height="30" as="alternateBounds" />
          </mxGeometry>
        </mxCell>
        <mxCell id="PuBjZ9zyTUK7U6MaTAjV-62" value="" style="shape=partialRectangle;html=1;whiteSpace=wrap;collapsible=0;dropTarget=0;pointerEvents=1;fillColor=none;top=0;left=0;bottom=0;right=0;points=[[0,0.5],[1,0.5]];portConstraint=eastwest;strokeColor=#457B9D;fontColor=#1D3557;" vertex="1" parent="PuBjZ9zyTUK7U6MaTAjV-58">
          <mxGeometry y="60" width="180" height="30" as="geometry" />
        </mxCell>
        <mxCell id="PuBjZ9zyTUK7U6MaTAjV-63" value="" style="shape=partialRectangle;html=1;whiteSpace=wrap;connectable=0;fillColor=none;top=0;left=0;bottom=0;right=0;overflow=hidden;pointerEvents=1;strokeColor=#457B9D;fontColor=#1D3557;" vertex="1" parent="PuBjZ9zyTUK7U6MaTAjV-62">
          <mxGeometry width="40" height="30" as="geometry">
            <mxRectangle width="40" height="30" as="alternateBounds" />
          </mxGeometry>
        </mxCell>
        <mxCell id="PuBjZ9zyTUK7U6MaTAjV-64" value="name" style="shape=partialRectangle;html=1;whiteSpace=wrap;connectable=0;fillColor=none;top=0;left=0;bottom=0;right=0;align=left;spacingLeft=6;overflow=hidden;pointerEvents=1;strokeColor=#457B9D;fontColor=#1D3557;" vertex="1" parent="PuBjZ9zyTUK7U6MaTAjV-62">
          <mxGeometry x="40" width="140" height="30" as="geometry">
            <mxRectangle width="140" height="30" as="alternateBounds" />
          </mxGeometry>
        </mxCell>
        <mxCell id="PuBjZ9zyTUK7U6MaTAjV-65" value="" style="shape=partialRectangle;html=1;whiteSpace=wrap;collapsible=0;dropTarget=0;pointerEvents=1;fillColor=none;top=0;left=0;bottom=0;right=0;points=[[0,0.5],[1,0.5]];portConstraint=eastwest;strokeColor=#457B9D;fontColor=#1D3557;" vertex="1" parent="PuBjZ9zyTUK7U6MaTAjV-58">
          <mxGeometry y="90" width="180" height="30" as="geometry" />
        </mxCell>
        <mxCell id="PuBjZ9zyTUK7U6MaTAjV-66" value="" style="shape=partialRectangle;html=1;whiteSpace=wrap;connectable=0;fillColor=none;top=0;left=0;bottom=0;right=0;overflow=hidden;pointerEvents=1;strokeColor=#457B9D;fontColor=#1D3557;" vertex="1" parent="PuBjZ9zyTUK7U6MaTAjV-65">
          <mxGeometry width="40" height="30" as="geometry">
            <mxRectangle width="40" height="30" as="alternateBounds" />
          </mxGeometry>
        </mxCell>
        <mxCell id="PuBjZ9zyTUK7U6MaTAjV-67" value="country" style="shape=partialRectangle;html=1;whiteSpace=wrap;connectable=0;fillColor=none;top=0;left=0;bottom=0;right=0;align=left;spacingLeft=6;overflow=hidden;pointerEvents=1;strokeColor=#457B9D;fontColor=#1D3557;" vertex="1" parent="PuBjZ9zyTUK7U6MaTAjV-65">
          <mxGeometry x="40" width="140" height="30" as="geometry">
            <mxRectangle width="140" height="30" as="alternateBounds" />
          </mxGeometry>
        </mxCell>
        <mxCell id="PuBjZ9zyTUK7U6MaTAjV-68" value="" style="shape=partialRectangle;html=1;whiteSpace=wrap;collapsible=0;dropTarget=0;pointerEvents=1;fillColor=none;top=0;left=0;bottom=0;right=0;points=[[0,0.5],[1,0.5]];portConstraint=eastwest;strokeColor=#457B9D;fontColor=#1D3557;" vertex="1" parent="PuBjZ9zyTUK7U6MaTAjV-58">
          <mxGeometry y="120" width="180" height="30" as="geometry" />
        </mxCell>
        <mxCell id="PuBjZ9zyTUK7U6MaTAjV-69" value="FK" style="shape=partialRectangle;html=1;whiteSpace=wrap;connectable=0;fillColor=none;top=0;left=0;bottom=0;right=0;overflow=hidden;pointerEvents=1;strokeColor=#457B9D;fontColor=#1D3557;" vertex="1" parent="PuBjZ9zyTUK7U6MaTAjV-68">
          <mxGeometry width="40" height="30" as="geometry">
            <mxRectangle width="40" height="30" as="alternateBounds" />
          </mxGeometry>
        </mxCell>
        <mxCell id="PuBjZ9zyTUK7U6MaTAjV-70" value="book_id" style="shape=partialRectangle;html=1;whiteSpace=wrap;connectable=0;fillColor=none;top=0;left=0;bottom=0;right=0;align=left;spacingLeft=6;overflow=hidden;pointerEvents=1;strokeColor=#457B9D;fontColor=#1D3557;" vertex="1" parent="PuBjZ9zyTUK7U6MaTAjV-68">
          <mxGeometry x="40" width="140" height="30" as="geometry">
            <mxRectangle width="140" height="30" as="alternateBounds" />
          </mxGeometry>
        </mxCell>
        <mxCell id="PuBjZ9zyTUK7U6MaTAjV-84" value="" style="shape=partialRectangle;html=1;whiteSpace=wrap;collapsible=0;dropTarget=0;pointerEvents=1;fillColor=none;top=0;left=0;bottom=0;right=0;points=[[0,0.5],[1,0.5]];portConstraint=eastwest;strokeColor=#457B9D;fontColor=#1D3557;" vertex="1" parent="PuBjZ9zyTUK7U6MaTAjV-58">
          <mxGeometry y="150" width="180" height="30" as="geometry" />
        </mxCell>
        <mxCell id="PuBjZ9zyTUK7U6MaTAjV-85" value="" style="shape=partialRectangle;html=1;whiteSpace=wrap;connectable=0;fillColor=none;top=0;left=0;bottom=0;right=0;overflow=hidden;pointerEvents=1;strokeColor=#457B9D;fontColor=#1D3557;" vertex="1" parent="PuBjZ9zyTUK7U6MaTAjV-84">
          <mxGeometry width="40" height="30" as="geometry">
            <mxRectangle width="40" height="30" as="alternateBounds" />
          </mxGeometry>
        </mxCell>
        <mxCell id="PuBjZ9zyTUK7U6MaTAjV-86" value="create_at" style="shape=partialRectangle;html=1;whiteSpace=wrap;connectable=0;fillColor=none;top=0;left=0;bottom=0;right=0;align=left;spacingLeft=6;overflow=hidden;pointerEvents=1;strokeColor=#457B9D;fontColor=#1D3557;" vertex="1" parent="PuBjZ9zyTUK7U6MaTAjV-84">
          <mxGeometry x="40" width="140" height="30" as="geometry">
            <mxRectangle width="140" height="30" as="alternateBounds" />
          </mxGeometry>
        </mxCell>
        <mxCell id="PuBjZ9zyTUK7U6MaTAjV-87" value="" style="shape=partialRectangle;html=1;whiteSpace=wrap;collapsible=0;dropTarget=0;pointerEvents=1;fillColor=none;top=0;left=0;bottom=0;right=0;points=[[0,0.5],[1,0.5]];portConstraint=eastwest;strokeColor=#457B9D;fontColor=#1D3557;" vertex="1" parent="PuBjZ9zyTUK7U6MaTAjV-58">
          <mxGeometry y="180" width="180" height="30" as="geometry" />
        </mxCell>
        <mxCell id="PuBjZ9zyTUK7U6MaTAjV-88" value="" style="shape=partialRectangle;html=1;whiteSpace=wrap;connectable=0;fillColor=none;top=0;left=0;bottom=0;right=0;overflow=hidden;pointerEvents=1;strokeColor=#457B9D;fontColor=#1D3557;" vertex="1" parent="PuBjZ9zyTUK7U6MaTAjV-87">
          <mxGeometry width="40" height="30" as="geometry">
            <mxRectangle width="40" height="30" as="alternateBounds" />
          </mxGeometry>
        </mxCell>
        <mxCell id="PuBjZ9zyTUK7U6MaTAjV-89" value="update_at" style="shape=partialRectangle;html=1;whiteSpace=wrap;connectable=0;fillColor=none;top=0;left=0;bottom=0;right=0;align=left;spacingLeft=6;overflow=hidden;pointerEvents=1;strokeColor=#457B9D;fontColor=#1D3557;" vertex="1" parent="PuBjZ9zyTUK7U6MaTAjV-87">
          <mxGeometry x="40" width="140" height="30" as="geometry">
            <mxRectangle width="140" height="30" as="alternateBounds" />
          </mxGeometry>
        </mxCell>
        <mxCell id="PuBjZ9zyTUK7U6MaTAjV-104" style="edgeStyle=orthogonalEdgeStyle;rounded=0;orthogonalLoop=1;jettySize=auto;html=1;startArrow=ERone;startFill=0;endArrow=ERoneToMany;endFill=0;strokeColor=#457B9D;fontColor=#1D3557;labelBackgroundColor=#F1FAEE;" edge="1" parent="1" source="PuBjZ9zyTUK7U6MaTAjV-91" target="PuBjZ9zyTUK7U6MaTAjV-42">
          <mxGeometry relative="1" as="geometry">
            <Array as="points">
              <mxPoint x="830" y="260" />
              <mxPoint x="760" y="260" />
            </Array>
          </mxGeometry>
        </mxCell>
        <mxCell id="PuBjZ9zyTUK7U6MaTAjV-91" value="publisher" style="shape=table;startSize=30;container=1;collapsible=0;childLayout=tableLayout;fixedRows=1;rowLines=0;fontStyle=1;align=center;pointerEvents=1;fillColor=#A8DADC;strokeColor=#457B9D;fontColor=#1D3557;" vertex="1" parent="1">
          <mxGeometry x="740" y="340" width="180" height="160" as="geometry" />
        </mxCell>
        <mxCell id="PuBjZ9zyTUK7U6MaTAjV-92" value="" style="shape=partialRectangle;html=1;whiteSpace=wrap;collapsible=0;dropTarget=0;pointerEvents=1;fillColor=none;top=0;left=0;bottom=1;right=0;points=[[0,0.5],[1,0.5]];portConstraint=eastwest;strokeColor=#457B9D;fontColor=#1D3557;" vertex="1" parent="PuBjZ9zyTUK7U6MaTAjV-91">
          <mxGeometry y="30" width="180" height="30" as="geometry" />
        </mxCell>
        <mxCell id="PuBjZ9zyTUK7U6MaTAjV-93" value="PK" style="shape=partialRectangle;html=1;whiteSpace=wrap;connectable=0;fillColor=none;top=0;left=0;bottom=0;right=0;overflow=hidden;pointerEvents=1;strokeColor=#457B9D;fontColor=#1D3557;fontStyle=3" vertex="1" parent="PuBjZ9zyTUK7U6MaTAjV-92">
          <mxGeometry width="40" height="30" as="geometry">
            <mxRectangle width="40" height="30" as="alternateBounds" />
          </mxGeometry>
        </mxCell>
        <mxCell id="PuBjZ9zyTUK7U6MaTAjV-94" value="id" style="shape=partialRectangle;html=1;whiteSpace=wrap;connectable=0;fillColor=none;top=0;left=0;bottom=0;right=0;align=left;spacingLeft=6;overflow=hidden;pointerEvents=1;strokeColor=#457B9D;fontColor=#1D3557;fontStyle=3" vertex="1" parent="PuBjZ9zyTUK7U6MaTAjV-92">
          <mxGeometry x="40" width="140" height="30" as="geometry">
            <mxRectangle width="140" height="30" as="alternateBounds" />
          </mxGeometry>
        </mxCell>
        <mxCell id="PuBjZ9zyTUK7U6MaTAjV-95" value="" style="shape=partialRectangle;html=1;whiteSpace=wrap;collapsible=0;dropTarget=0;pointerEvents=1;fillColor=none;top=0;left=0;bottom=0;right=0;points=[[0,0.5],[1,0.5]];portConstraint=eastwest;strokeColor=#457B9D;fontColor=#1D3557;" vertex="1" parent="PuBjZ9zyTUK7U6MaTAjV-91">
          <mxGeometry y="60" width="180" height="30" as="geometry" />
        </mxCell>
        <mxCell id="PuBjZ9zyTUK7U6MaTAjV-96" value="" style="shape=partialRectangle;html=1;whiteSpace=wrap;connectable=0;fillColor=none;top=0;left=0;bottom=0;right=0;overflow=hidden;pointerEvents=1;strokeColor=#457B9D;fontColor=#1D3557;" vertex="1" parent="PuBjZ9zyTUK7U6MaTAjV-95">
          <mxGeometry width="40" height="30" as="geometry">
            <mxRectangle width="40" height="30" as="alternateBounds" />
          </mxGeometry>
        </mxCell>
        <mxCell id="PuBjZ9zyTUK7U6MaTAjV-97" value="name" style="shape=partialRectangle;html=1;whiteSpace=wrap;connectable=0;fillColor=none;top=0;left=0;bottom=0;right=0;align=left;spacingLeft=6;overflow=hidden;pointerEvents=1;strokeColor=#457B9D;fontColor=#1D3557;" vertex="1" parent="PuBjZ9zyTUK7U6MaTAjV-95">
          <mxGeometry x="40" width="140" height="30" as="geometry">
            <mxRectangle width="140" height="30" as="alternateBounds" />
          </mxGeometry>
        </mxCell>
        <mxCell id="PuBjZ9zyTUK7U6MaTAjV-98" value="" style="shape=partialRectangle;html=1;whiteSpace=wrap;collapsible=0;dropTarget=0;pointerEvents=1;fillColor=none;top=0;left=0;bottom=0;right=0;points=[[0,0.5],[1,0.5]];portConstraint=eastwest;strokeColor=#457B9D;fontColor=#1D3557;" vertex="1" parent="PuBjZ9zyTUK7U6MaTAjV-91">
          <mxGeometry y="90" width="180" height="30" as="geometry" />
        </mxCell>
        <mxCell id="PuBjZ9zyTUK7U6MaTAjV-99" value="" style="shape=partialRectangle;html=1;whiteSpace=wrap;connectable=0;fillColor=none;top=0;left=0;bottom=0;right=0;overflow=hidden;pointerEvents=1;strokeColor=#457B9D;fontColor=#1D3557;" vertex="1" parent="PuBjZ9zyTUK7U6MaTAjV-98">
          <mxGeometry width="40" height="30" as="geometry">
            <mxRectangle width="40" height="30" as="alternateBounds" />
          </mxGeometry>
        </mxCell>
        <mxCell id="PuBjZ9zyTUK7U6MaTAjV-100" value="create_at" style="shape=partialRectangle;html=1;whiteSpace=wrap;connectable=0;fillColor=none;top=0;left=0;bottom=0;right=0;align=left;spacingLeft=6;overflow=hidden;pointerEvents=1;strokeColor=#457B9D;fontColor=#1D3557;" vertex="1" parent="PuBjZ9zyTUK7U6MaTAjV-98">
          <mxGeometry x="40" width="140" height="30" as="geometry">
            <mxRectangle width="140" height="30" as="alternateBounds" />
          </mxGeometry>
        </mxCell>
        <mxCell id="PuBjZ9zyTUK7U6MaTAjV-101" value="" style="shape=partialRectangle;html=1;whiteSpace=wrap;collapsible=0;dropTarget=0;pointerEvents=1;fillColor=none;top=0;left=0;bottom=0;right=0;points=[[0,0.5],[1,0.5]];portConstraint=eastwest;strokeColor=#457B9D;fontColor=#1D3557;" vertex="1" parent="PuBjZ9zyTUK7U6MaTAjV-91">
          <mxGeometry y="120" width="180" height="30" as="geometry" />
        </mxCell>
        <mxCell id="PuBjZ9zyTUK7U6MaTAjV-102" value="" style="shape=partialRectangle;html=1;whiteSpace=wrap;connectable=0;fillColor=none;top=0;left=0;bottom=0;right=0;overflow=hidden;pointerEvents=1;strokeColor=#457B9D;fontColor=#1D3557;" vertex="1" parent="PuBjZ9zyTUK7U6MaTAjV-101">
          <mxGeometry width="40" height="30" as="geometry">
            <mxRectangle width="40" height="30" as="alternateBounds" />
          </mxGeometry>
        </mxCell>
        <mxCell id="PuBjZ9zyTUK7U6MaTAjV-103" value="update_at" style="shape=partialRectangle;html=1;whiteSpace=wrap;connectable=0;fillColor=none;top=0;left=0;bottom=0;right=0;align=left;spacingLeft=6;overflow=hidden;pointerEvents=1;strokeColor=#457B9D;fontColor=#1D3557;" vertex="1" parent="PuBjZ9zyTUK7U6MaTAjV-101">
          <mxGeometry x="40" width="140" height="30" as="geometry">
            <mxRectangle width="140" height="30" as="alternateBounds" />
          </mxGeometry>
        </mxCell>
        <mxCell id="PuBjZ9zyTUK7U6MaTAjV-111" value="review" style="shape=table;startSize=30;container=1;collapsible=0;childLayout=tableLayout;fixedRows=1;rowLines=0;fontStyle=1;align=center;pointerEvents=1;fillColor=#A8DADC;strokeColor=#457B9D;fontColor=#1D3557;" vertex="1" parent="1">
          <mxGeometry x="370" y="40" width="180" height="270" as="geometry" />
        </mxCell>
        <mxCell id="PuBjZ9zyTUK7U6MaTAjV-112" value="" style="shape=partialRectangle;html=1;whiteSpace=wrap;collapsible=0;dropTarget=0;pointerEvents=1;fillColor=none;top=0;left=0;bottom=1;right=0;points=[[0,0.5],[1,0.5]];portConstraint=eastwest;strokeColor=#457B9D;fontColor=#1D3557;" vertex="1" parent="PuBjZ9zyTUK7U6MaTAjV-111">
          <mxGeometry y="30" width="180" height="30" as="geometry" />
        </mxCell>
        <mxCell id="PuBjZ9zyTUK7U6MaTAjV-113" value="PK" style="shape=partialRectangle;html=1;whiteSpace=wrap;connectable=0;fillColor=none;top=0;left=0;bottom=0;right=0;overflow=hidden;pointerEvents=1;strokeColor=#457B9D;fontColor=#1D3557;fontStyle=3" vertex="1" parent="PuBjZ9zyTUK7U6MaTAjV-112">
          <mxGeometry width="40" height="30" as="geometry">
            <mxRectangle width="40" height="30" as="alternateBounds" />
          </mxGeometry>
        </mxCell>
        <mxCell id="PuBjZ9zyTUK7U6MaTAjV-114" value="id" style="shape=partialRectangle;html=1;whiteSpace=wrap;connectable=0;fillColor=none;top=0;left=0;bottom=0;right=0;align=left;spacingLeft=6;overflow=hidden;pointerEvents=1;strokeColor=#457B9D;fontColor=#1D3557;fontStyle=3" vertex="1" parent="PuBjZ9zyTUK7U6MaTAjV-112">
          <mxGeometry x="40" width="140" height="30" as="geometry">
            <mxRectangle width="140" height="30" as="alternateBounds" />
          </mxGeometry>
        </mxCell>
        <mxCell id="PuBjZ9zyTUK7U6MaTAjV-115" value="" style="shape=partialRectangle;html=1;whiteSpace=wrap;collapsible=0;dropTarget=0;pointerEvents=1;fillColor=none;top=0;left=0;bottom=0;right=0;points=[[0,0.5],[1,0.5]];portConstraint=eastwest;strokeColor=#457B9D;fontColor=#1D3557;" vertex="1" parent="PuBjZ9zyTUK7U6MaTAjV-111">
          <mxGeometry y="60" width="180" height="30" as="geometry" />
        </mxCell>
        <mxCell id="PuBjZ9zyTUK7U6MaTAjV-116" value="" style="shape=partialRectangle;html=1;whiteSpace=wrap;connectable=0;fillColor=none;top=0;left=0;bottom=0;right=0;overflow=hidden;pointerEvents=1;strokeColor=#457B9D;fontColor=#1D3557;" vertex="1" parent="PuBjZ9zyTUK7U6MaTAjV-115">
          <mxGeometry width="40" height="30" as="geometry">
            <mxRectangle width="40" height="30" as="alternateBounds" />
          </mxGeometry>
        </mxCell>
        <mxCell id="PuBjZ9zyTUK7U6MaTAjV-117" value="title" style="shape=partialRectangle;html=1;whiteSpace=wrap;connectable=0;fillColor=none;top=0;left=0;bottom=0;right=0;align=left;spacingLeft=6;overflow=hidden;pointerEvents=1;strokeColor=#457B9D;fontColor=#1D3557;" vertex="1" parent="PuBjZ9zyTUK7U6MaTAjV-115">
          <mxGeometry x="40" width="140" height="30" as="geometry">
            <mxRectangle width="140" height="30" as="alternateBounds" />
          </mxGeometry>
        </mxCell>
        <mxCell id="PuBjZ9zyTUK7U6MaTAjV-118" value="" style="shape=partialRectangle;html=1;whiteSpace=wrap;collapsible=0;dropTarget=0;pointerEvents=1;fillColor=none;top=0;left=0;bottom=0;right=0;points=[[0,0.5],[1,0.5]];portConstraint=eastwest;strokeColor=#457B9D;fontColor=#1D3557;" vertex="1" parent="PuBjZ9zyTUK7U6MaTAjV-111">
          <mxGeometry y="90" width="180" height="30" as="geometry" />
        </mxCell>
        <mxCell id="PuBjZ9zyTUK7U6MaTAjV-119" value="" style="shape=partialRectangle;html=1;whiteSpace=wrap;connectable=0;fillColor=none;top=0;left=0;bottom=0;right=0;overflow=hidden;pointerEvents=1;strokeColor=#457B9D;fontColor=#1D3557;" vertex="1" parent="PuBjZ9zyTUK7U6MaTAjV-118">
          <mxGeometry width="40" height="30" as="geometry">
            <mxRectangle width="40" height="30" as="alternateBounds" />
          </mxGeometry>
        </mxCell>
        <mxCell id="PuBjZ9zyTUK7U6MaTAjV-120" value="content" style="shape=partialRectangle;html=1;whiteSpace=wrap;connectable=0;fillColor=none;top=0;left=0;bottom=0;right=0;align=left;spacingLeft=6;overflow=hidden;pointerEvents=1;strokeColor=#457B9D;fontColor=#1D3557;" vertex="1" parent="PuBjZ9zyTUK7U6MaTAjV-118">
          <mxGeometry x="40" width="140" height="30" as="geometry">
            <mxRectangle width="140" height="30" as="alternateBounds" />
          </mxGeometry>
        </mxCell>
        <mxCell id="PuBjZ9zyTUK7U6MaTAjV-131" value="" style="shape=partialRectangle;html=1;whiteSpace=wrap;collapsible=0;dropTarget=0;pointerEvents=1;fillColor=none;top=0;left=0;bottom=0;right=0;points=[[0,0.5],[1,0.5]];portConstraint=eastwest;strokeColor=#457B9D;fontColor=#1D3557;" vertex="1" parent="PuBjZ9zyTUK7U6MaTAjV-111">
          <mxGeometry y="120" width="180" height="30" as="geometry" />
        </mxCell>
        <mxCell id="PuBjZ9zyTUK7U6MaTAjV-132" value="" style="shape=partialRectangle;html=1;whiteSpace=wrap;connectable=0;fillColor=none;top=0;left=0;bottom=0;right=0;overflow=hidden;pointerEvents=1;strokeColor=#457B9D;fontColor=#1D3557;" vertex="1" parent="PuBjZ9zyTUK7U6MaTAjV-131">
          <mxGeometry width="40" height="30" as="geometry">
            <mxRectangle width="40" height="30" as="alternateBounds" />
          </mxGeometry>
        </mxCell>
        <mxCell id="PuBjZ9zyTUK7U6MaTAjV-133" value="score" style="shape=partialRectangle;html=1;whiteSpace=wrap;connectable=0;fillColor=none;top=0;left=0;bottom=0;right=0;align=left;spacingLeft=6;overflow=hidden;pointerEvents=1;strokeColor=#457B9D;fontColor=#1D3557;" vertex="1" parent="PuBjZ9zyTUK7U6MaTAjV-131">
          <mxGeometry x="40" width="140" height="30" as="geometry">
            <mxRectangle width="140" height="30" as="alternateBounds" />
          </mxGeometry>
        </mxCell>
        <mxCell id="PuBjZ9zyTUK7U6MaTAjV-134" value="" style="shape=partialRectangle;html=1;whiteSpace=wrap;collapsible=0;dropTarget=0;pointerEvents=1;fillColor=none;top=0;left=0;bottom=0;right=0;points=[[0,0.5],[1,0.5]];portConstraint=eastwest;strokeColor=#457B9D;fontColor=#1D3557;" vertex="1" parent="PuBjZ9zyTUK7U6MaTAjV-111">
          <mxGeometry y="150" width="180" height="30" as="geometry" />
        </mxCell>
        <mxCell id="PuBjZ9zyTUK7U6MaTAjV-135" value="FK" style="shape=partialRectangle;html=1;whiteSpace=wrap;connectable=0;fillColor=none;top=0;left=0;bottom=0;right=0;overflow=hidden;pointerEvents=1;strokeColor=#457B9D;fontColor=#1D3557;" vertex="1" parent="PuBjZ9zyTUK7U6MaTAjV-134">
          <mxGeometry width="40" height="30" as="geometry">
            <mxRectangle width="40" height="30" as="alternateBounds" />
          </mxGeometry>
        </mxCell>
        <mxCell id="PuBjZ9zyTUK7U6MaTAjV-136" value="book_id" style="shape=partialRectangle;html=1;whiteSpace=wrap;connectable=0;fillColor=none;top=0;left=0;bottom=0;right=0;align=left;spacingLeft=6;overflow=hidden;pointerEvents=1;strokeColor=#457B9D;fontColor=#1D3557;" vertex="1" parent="PuBjZ9zyTUK7U6MaTAjV-134">
          <mxGeometry x="40" width="140" height="30" as="geometry">
            <mxRectangle width="140" height="30" as="alternateBounds" />
          </mxGeometry>
        </mxCell>
        <mxCell id="PuBjZ9zyTUK7U6MaTAjV-137" value="" style="shape=partialRectangle;html=1;whiteSpace=wrap;collapsible=0;dropTarget=0;pointerEvents=1;fillColor=none;top=0;left=0;bottom=0;right=0;points=[[0,0.5],[1,0.5]];portConstraint=eastwest;strokeColor=#457B9D;fontColor=#1D3557;" vertex="1" parent="PuBjZ9zyTUK7U6MaTAjV-111">
          <mxGeometry y="180" width="180" height="30" as="geometry" />
        </mxCell>
        <mxCell id="PuBjZ9zyTUK7U6MaTAjV-138" value="FK" style="shape=partialRectangle;html=1;whiteSpace=wrap;connectable=0;fillColor=none;top=0;left=0;bottom=0;right=0;overflow=hidden;pointerEvents=1;strokeColor=#457B9D;fontColor=#1D3557;" vertex="1" parent="PuBjZ9zyTUK7U6MaTAjV-137">
          <mxGeometry width="40" height="30" as="geometry">
            <mxRectangle width="40" height="30" as="alternateBounds" />
          </mxGeometry>
        </mxCell>
        <mxCell id="PuBjZ9zyTUK7U6MaTAjV-139" value="user_id" style="shape=partialRectangle;html=1;whiteSpace=wrap;connectable=0;fillColor=none;top=0;left=0;bottom=0;right=0;align=left;spacingLeft=6;overflow=hidden;pointerEvents=1;strokeColor=#457B9D;fontColor=#1D3557;" vertex="1" parent="PuBjZ9zyTUK7U6MaTAjV-137">
          <mxGeometry x="40" width="140" height="30" as="geometry">
            <mxRectangle width="140" height="30" as="alternateBounds" />
          </mxGeometry>
        </mxCell>
        <mxCell id="PuBjZ9zyTUK7U6MaTAjV-140" value="" style="shape=partialRectangle;html=1;whiteSpace=wrap;collapsible=0;dropTarget=0;pointerEvents=1;fillColor=none;top=0;left=0;bottom=0;right=0;points=[[0,0.5],[1,0.5]];portConstraint=eastwest;strokeColor=#457B9D;fontColor=#1D3557;" vertex="1" parent="PuBjZ9zyTUK7U6MaTAjV-111">
          <mxGeometry y="210" width="180" height="30" as="geometry" />
        </mxCell>
        <mxCell id="PuBjZ9zyTUK7U6MaTAjV-141" value="" style="shape=partialRectangle;html=1;whiteSpace=wrap;connectable=0;fillColor=none;top=0;left=0;bottom=0;right=0;overflow=hidden;pointerEvents=1;strokeColor=#457B9D;fontColor=#1D3557;" vertex="1" parent="PuBjZ9zyTUK7U6MaTAjV-140">
          <mxGeometry width="40" height="30" as="geometry">
            <mxRectangle width="40" height="30" as="alternateBounds" />
          </mxGeometry>
        </mxCell>
        <mxCell id="PuBjZ9zyTUK7U6MaTAjV-142" value="create_at" style="shape=partialRectangle;html=1;whiteSpace=wrap;connectable=0;fillColor=none;top=0;left=0;bottom=0;right=0;align=left;spacingLeft=6;overflow=hidden;pointerEvents=1;strokeColor=#457B9D;fontColor=#1D3557;" vertex="1" parent="PuBjZ9zyTUK7U6MaTAjV-140">
          <mxGeometry x="40" width="140" height="30" as="geometry">
            <mxRectangle width="140" height="30" as="alternateBounds" />
          </mxGeometry>
        </mxCell>
        <mxCell id="PuBjZ9zyTUK7U6MaTAjV-143" value="" style="shape=partialRectangle;html=1;whiteSpace=wrap;collapsible=0;dropTarget=0;pointerEvents=1;fillColor=none;top=0;left=0;bottom=0;right=0;points=[[0,0.5],[1,0.5]];portConstraint=eastwest;strokeColor=#457B9D;fontColor=#1D3557;" vertex="1" parent="PuBjZ9zyTUK7U6MaTAjV-111">
          <mxGeometry y="240" width="180" height="30" as="geometry" />
        </mxCell>
        <mxCell id="PuBjZ9zyTUK7U6MaTAjV-144" value="" style="shape=partialRectangle;html=1;whiteSpace=wrap;connectable=0;fillColor=none;top=0;left=0;bottom=0;right=0;overflow=hidden;pointerEvents=1;strokeColor=#457B9D;fontColor=#1D3557;" vertex="1" parent="PuBjZ9zyTUK7U6MaTAjV-143">
          <mxGeometry width="40" height="30" as="geometry">
            <mxRectangle width="40" height="30" as="alternateBounds" />
          </mxGeometry>
        </mxCell>
        <mxCell id="PuBjZ9zyTUK7U6MaTAjV-145" value="update_at" style="shape=partialRectangle;html=1;whiteSpace=wrap;connectable=0;fillColor=none;top=0;left=0;bottom=0;right=0;align=left;spacingLeft=6;overflow=hidden;pointerEvents=1;strokeColor=#457B9D;fontColor=#1D3557;" vertex="1" parent="PuBjZ9zyTUK7U6MaTAjV-143">
          <mxGeometry x="40" width="140" height="30" as="geometry">
            <mxRectangle width="140" height="30" as="alternateBounds" />
          </mxGeometry>
        </mxCell>
        <mxCell id="PuBjZ9zyTUK7U6MaTAjV-146" style="edgeStyle=orthogonalEdgeStyle;rounded=0;orthogonalLoop=1;jettySize=auto;html=1;entryX=-0.004;entryY=0.069;entryDx=0;entryDy=0;entryPerimeter=0;startArrow=ERone;startFill=0;endArrow=ERoneToMany;endFill=0;strokeColor=#457B9D;fontColor=#1D3557;labelBackgroundColor=#F1FAEE;" edge="1" parent="1" source="PuBjZ9zyTUK7U6MaTAjV-16" target="PuBjZ9zyTUK7U6MaTAjV-111">
          <mxGeometry relative="1" as="geometry" />
        </mxCell>
        <mxCell id="PuBjZ9zyTUK7U6MaTAjV-154" style="edgeStyle=orthogonalEdgeStyle;rounded=0;orthogonalLoop=1;jettySize=auto;html=1;entryX=1;entryY=0.5;entryDx=0;entryDy=0;startArrow=ERone;startFill=0;endArrow=ERzeroToMany;endFill=0;strokeColor=#457B9D;fontColor=#1D3557;labelBackgroundColor=#F1FAEE;" edge="1" parent="1" source="PuBjZ9zyTUK7U6MaTAjV-49" target="PuBjZ9zyTUK7U6MaTAjV-118">
          <mxGeometry relative="1" as="geometry" />
        </mxCell>
        <mxCell id="PuBjZ9zyTUK7U6MaTAjV-194" style="edgeStyle=orthogonalEdgeStyle;curved=0;rounded=1;sketch=0;orthogonalLoop=1;jettySize=auto;html=1;fontColor=#000000;strokeColor=#457B9D;fillColor=#A8DADC;startArrow=ERone;startFill=0;endArrow=ERone;endFill=0;" edge="1" parent="1" source="PuBjZ9zyTUK7U6MaTAjV-165">
          <mxGeometry relative="1" as="geometry">
            <mxPoint x="811" y="145" as="targetPoint" />
            <Array as="points">
              <mxPoint x="811" y="145" />
            </Array>
          </mxGeometry>
        </mxCell>
        <mxCell id="PuBjZ9zyTUK7U6MaTAjV-165" value="book_review_info" style="shape=table;startSize=30;container=1;collapsible=0;childLayout=tableLayout;fixedRows=1;rowLines=0;fontStyle=1;align=center;pointerEvents=1;rounded=0;sketch=0;fontColor=#000000;strokeColor=#457B9D;fillColor=#A8DADC;" vertex="1" parent="1">
          <mxGeometry x="890" y="40" width="180" height="210" as="geometry" />
        </mxCell>
        <mxCell id="PuBjZ9zyTUK7U6MaTAjV-166" value="" style="shape=partialRectangle;html=1;whiteSpace=wrap;collapsible=0;dropTarget=0;pointerEvents=1;fillColor=none;top=0;left=0;bottom=1;right=0;points=[[0,0.5],[1,0.5]];portConstraint=eastwest;" vertex="1" parent="PuBjZ9zyTUK7U6MaTAjV-165">
          <mxGeometry y="30" width="180" height="30" as="geometry" />
        </mxCell>
        <mxCell id="PuBjZ9zyTUK7U6MaTAjV-167" value="PK" style="shape=partialRectangle;html=1;whiteSpace=wrap;connectable=0;fillColor=none;top=0;left=0;bottom=0;right=0;overflow=hidden;pointerEvents=1;fontStyle=3" vertex="1" parent="PuBjZ9zyTUK7U6MaTAjV-166">
          <mxGeometry width="40" height="30" as="geometry">
            <mxRectangle width="40" height="30" as="alternateBounds" />
          </mxGeometry>
        </mxCell>
        <mxCell id="PuBjZ9zyTUK7U6MaTAjV-168" value="id" style="shape=partialRectangle;html=1;whiteSpace=wrap;connectable=0;fillColor=none;top=0;left=0;bottom=0;right=0;align=left;spacingLeft=6;overflow=hidden;pointerEvents=1;fontStyle=3" vertex="1" parent="PuBjZ9zyTUK7U6MaTAjV-166">
          <mxGeometry x="40" width="140" height="30" as="geometry">
            <mxRectangle width="140" height="30" as="alternateBounds" />
          </mxGeometry>
        </mxCell>
        <mxCell id="PuBjZ9zyTUK7U6MaTAjV-169" value="" style="shape=partialRectangle;html=1;whiteSpace=wrap;collapsible=0;dropTarget=0;pointerEvents=1;fillColor=none;top=0;left=0;bottom=0;right=0;points=[[0,0.5],[1,0.5]];portConstraint=eastwest;" vertex="1" parent="PuBjZ9zyTUK7U6MaTAjV-165">
          <mxGeometry y="60" width="180" height="30" as="geometry" />
        </mxCell>
        <mxCell id="PuBjZ9zyTUK7U6MaTAjV-170" value="" style="shape=partialRectangle;html=1;whiteSpace=wrap;connectable=0;fillColor=none;top=0;left=0;bottom=0;right=0;overflow=hidden;pointerEvents=1;" vertex="1" parent="PuBjZ9zyTUK7U6MaTAjV-169">
          <mxGeometry width="40" height="30" as="geometry">
            <mxRectangle width="40" height="30" as="alternateBounds" />
          </mxGeometry>
        </mxCell>
        <mxCell id="PuBjZ9zyTUK7U6MaTAjV-171" value="average_review_score" style="shape=partialRectangle;html=1;whiteSpace=wrap;connectable=0;fillColor=none;top=0;left=0;bottom=0;right=0;align=left;spacingLeft=6;overflow=hidden;pointerEvents=1;" vertex="1" parent="PuBjZ9zyTUK7U6MaTAjV-169">
          <mxGeometry x="40" width="140" height="30" as="geometry">
            <mxRectangle width="140" height="30" as="alternateBounds" />
          </mxGeometry>
        </mxCell>
        <mxCell id="PuBjZ9zyTUK7U6MaTAjV-172" value="" style="shape=partialRectangle;html=1;whiteSpace=wrap;collapsible=0;dropTarget=0;pointerEvents=1;fillColor=none;top=0;left=0;bottom=0;right=0;points=[[0,0.5],[1,0.5]];portConstraint=eastwest;" vertex="1" parent="PuBjZ9zyTUK7U6MaTAjV-165">
          <mxGeometry y="90" width="180" height="30" as="geometry" />
        </mxCell>
        <mxCell id="PuBjZ9zyTUK7U6MaTAjV-173" value="" style="shape=partialRectangle;html=1;whiteSpace=wrap;connectable=0;fillColor=none;top=0;left=0;bottom=0;right=0;overflow=hidden;pointerEvents=1;" vertex="1" parent="PuBjZ9zyTUK7U6MaTAjV-172">
          <mxGeometry width="40" height="30" as="geometry">
            <mxRectangle width="40" height="30" as="alternateBounds" />
          </mxGeometry>
        </mxCell>
        <mxCell id="PuBjZ9zyTUK7U6MaTAjV-174" value="review_count" style="shape=partialRectangle;html=1;whiteSpace=wrap;connectable=0;fillColor=none;top=0;left=0;bottom=0;right=0;align=left;spacingLeft=6;overflow=hidden;pointerEvents=1;" vertex="1" parent="PuBjZ9zyTUK7U6MaTAjV-172">
          <mxGeometry x="40" width="140" height="30" as="geometry">
            <mxRectangle width="140" height="30" as="alternateBounds" />
          </mxGeometry>
        </mxCell>
        <mxCell id="PuBjZ9zyTUK7U6MaTAjV-185" value="" style="shape=partialRectangle;html=1;whiteSpace=wrap;collapsible=0;dropTarget=0;pointerEvents=1;fillColor=none;top=0;left=0;bottom=0;right=0;points=[[0,0.5],[1,0.5]];portConstraint=eastwest;" vertex="1" parent="PuBjZ9zyTUK7U6MaTAjV-165">
          <mxGeometry y="120" width="180" height="30" as="geometry" />
        </mxCell>
        <mxCell id="PuBjZ9zyTUK7U6MaTAjV-186" value="" style="shape=partialRectangle;html=1;whiteSpace=wrap;connectable=0;fillColor=none;top=0;left=0;bottom=0;right=0;overflow=hidden;pointerEvents=1;" vertex="1" parent="PuBjZ9zyTUK7U6MaTAjV-185">
          <mxGeometry width="40" height="30" as="geometry">
            <mxRectangle width="40" height="30" as="alternateBounds" />
          </mxGeometry>
        </mxCell>
        <mxCell id="PuBjZ9zyTUK7U6MaTAjV-187" value="book_id" style="shape=partialRectangle;html=1;whiteSpace=wrap;connectable=0;fillColor=none;top=0;left=0;bottom=0;right=0;align=left;spacingLeft=6;overflow=hidden;pointerEvents=1;" vertex="1" parent="PuBjZ9zyTUK7U6MaTAjV-185">
          <mxGeometry x="40" width="140" height="30" as="geometry">
            <mxRectangle width="140" height="30" as="alternateBounds" />
          </mxGeometry>
        </mxCell>
        <mxCell id="PuBjZ9zyTUK7U6MaTAjV-188" value="" style="shape=partialRectangle;html=1;whiteSpace=wrap;collapsible=0;dropTarget=0;pointerEvents=1;fillColor=none;top=0;left=0;bottom=0;right=0;points=[[0,0.5],[1,0.5]];portConstraint=eastwest;" vertex="1" parent="PuBjZ9zyTUK7U6MaTAjV-165">
          <mxGeometry y="150" width="180" height="30" as="geometry" />
        </mxCell>
        <mxCell id="PuBjZ9zyTUK7U6MaTAjV-189" value="" style="shape=partialRectangle;html=1;whiteSpace=wrap;connectable=0;fillColor=none;top=0;left=0;bottom=0;right=0;overflow=hidden;pointerEvents=1;" vertex="1" parent="PuBjZ9zyTUK7U6MaTAjV-188">
          <mxGeometry width="40" height="30" as="geometry">
            <mxRectangle width="40" height="30" as="alternateBounds" />
          </mxGeometry>
        </mxCell>
        <mxCell id="PuBjZ9zyTUK7U6MaTAjV-190" value="create_at" style="shape=partialRectangle;html=1;whiteSpace=wrap;connectable=0;fillColor=none;top=0;left=0;bottom=0;right=0;align=left;spacingLeft=6;overflow=hidden;pointerEvents=1;" vertex="1" parent="PuBjZ9zyTUK7U6MaTAjV-188">
          <mxGeometry x="40" width="140" height="30" as="geometry">
            <mxRectangle width="140" height="30" as="alternateBounds" />
          </mxGeometry>
        </mxCell>
        <mxCell id="PuBjZ9zyTUK7U6MaTAjV-191" value="" style="shape=partialRectangle;html=1;whiteSpace=wrap;collapsible=0;dropTarget=0;pointerEvents=1;fillColor=none;top=0;left=0;bottom=0;right=0;points=[[0,0.5],[1,0.5]];portConstraint=eastwest;" vertex="1" parent="PuBjZ9zyTUK7U6MaTAjV-165">
          <mxGeometry y="180" width="180" height="30" as="geometry" />
        </mxCell>
        <mxCell id="PuBjZ9zyTUK7U6MaTAjV-192" value="" style="shape=partialRectangle;html=1;whiteSpace=wrap;connectable=0;fillColor=none;top=0;left=0;bottom=0;right=0;overflow=hidden;pointerEvents=1;" vertex="1" parent="PuBjZ9zyTUK7U6MaTAjV-191">
          <mxGeometry width="40" height="30" as="geometry">
            <mxRectangle width="40" height="30" as="alternateBounds" />
          </mxGeometry>
        </mxCell>
        <mxCell id="PuBjZ9zyTUK7U6MaTAjV-193" value="update_at" style="shape=partialRectangle;html=1;whiteSpace=wrap;connectable=0;fillColor=none;top=0;left=0;bottom=0;right=0;align=left;spacingLeft=6;overflow=hidden;pointerEvents=1;" vertex="1" parent="PuBjZ9zyTUK7U6MaTAjV-191">
          <mxGeometry x="40" width="140" height="30" as="geometry">
            <mxRectangle width="140" height="30" as="alternateBounds" />
          </mxGeometry>
        </mxCell>
      </root>
    </mxGraphModel>
  </diagram>
</mxfile>
